#!OML:ASF H:\Terrain\Patient Classification 1\Terrain2\Thursday\justin.ASF
:FULLY-SPECIFIED
:DEGREES
3186
root -1.16192 20.7426 10.4716 1075.57 83.931 -365.616
lowerback 4.55113 0.690402 -0.528344
upperback 2.31168 0.971945 2.69087
thorax -0.231476 0.493001 3.01664
lowerneck -11.8866 -3.28829 -9.8297
upperneck 40.0377 -1.68097 3.85312
head 16.6172 -1.05888 3.37839
rclavicle -1.81888e-014 5.56597e-015
rhumerus -32.4088 -0.36291 -84.5606
rradius 39.9352
rwrist -13.1434
rhand -22.4838 10.6879
rfingers 7.12502
rthumb 3.94157 -19.2554
lclavicle -1.81888e-014 5.56597e-015
lhumerus -36.5241 7.95872 83.0162
lradius 26.6047
lwrist 0.750166
lhand -19.6055 21.2105
lfingers 7.12502
lthumb 6.72067 51.0839
rfemur -11.9465 0.820859 20.4572
rtibia 36.6529
rfoot -22.3432 3.83859
rtoes 9.70673
lfemur -12.0635 -0.192814 -20.4316
ltibia 30.579
lfoot -15.2282 -9.01164
ltoes 16.9701
3187
root -1.13936 20.7245 10.5 1073.95 84.2597 -367.094
lowerback 4.64977 0.610358 -0.48913
upperback 2.3128 0.870393 2.7621
thorax -0.280024 0.44343 3.07205
lowerneck -11.648 -3.20815 -9.82846
upperneck 39.8571 -1.5605 3.77664
head 16.4466 -1.01426 3.35464
rclavicle 1.64991e-014 2.3059e-014
rhumerus -32.6154 0.205859 -84.7948
rradius 40.338
rwrist -13.5461
rhand -22.5996 10.5242
rfingers 7.12502
rthumb 3.8298 -19.4211
lclavicle 1.64991e-014 2.3059e-014
lhumerus -36.6376 8.34119 82.9283
lradius 26.5611
lwrist 0.222781
lhand -19.4399 21.1511
lfingers 7.12502
lthumb 6.88052 51.0193
rfemur -11.5503 0.521637 20.6221
rtibia 36.2095
rfoot -21.6822 4.16924
rtoes 11.9623
lfemur -12.0175 -0.432097 -20.2195
ltibia 30.8897
lfoot -15.3452 -9.00617
ltoes 16.6806
3188
root -1.11652 20.723 10.5236 1073.82 84.6425 -367.082
lowerback 4.77991 0.609384 -0.431003
upperback 2.30269 0.873003 2.72572
thorax -0.361807 0.446169 3.0001
lowerneck -11.5176 -3.2745 -10.0584
upperneck 39.8579 -1.66102 3.94685
head 16.4327 -1.06359 3.45624
rclavicle 6.95746e-015 1.43125e-014
rhumerus -32.6633 0.148239 -84.7807
rradius 40.4039
rwrist -13.6654
rhand -22.3984 10.8254
rfingers 7.12502
rthumb 4.0241 -19.1163
lclavicle 6.95746e-015 1.43125e-014
lhumerus -36.6462 8.36511 82.9464
lradius 26.4983
lwrist -0.0236793
lhand -19.4315 21.2803
lfingers 7.12502
lthumb 6.88863 51.1482
rfemur -11.0194 0.478851 20.5461
rtibia 35.8276
rfoot -21.546 4.28916
rtoes 12.0522
lfemur -11.9696 -1.00534 -20.2293
ltibia 31.2604
lfoot -15.6143 -8.70695
ltoes 15.3304
3189
root -1.08907 20.7237 10.5451 1073.66 84.9429 -367.196
lowerback 4.73319 0.703269 -0.172476
upperback 2.28757 1.00463 2.53844
thorax -0.351417 0.513504 2.65456
lowerneck -11.5172 -3.3996 -9.88242
upperneck 40.0228 -1.87747 3.95896
head 16.5395 -1.12111 3.40364
rclavicle 1.65985e-014 2.46493e-014
rhumerus -32.7009 -0.327121 -84.8398
rradius 40.439
rwrist -13.6869
rhand -22.5443 11.0853
rfingers 7.12502
rthumb 3.88317 -18.8591
lclavicle 1.65985e-014 2.46493e-014
lhumerus -36.5878 7.36231 83.138
lradius 26.5433
lwrist 0.698182
lhand -19.6597 21.4298
lfingers 7.12502
lthumb 6.66832 51.3048
rfemur -10.5228 0.424212 20.4963
rtibia 35.4508
rfoot -21.7484 4.05815
rtoes 10.6654
lfemur -12.0297 -1.50579 -20.2283
ltibia 31.7212
lfoot -16.0755 -8.36599
ltoes 13.3765
3190
root -1.06382 20.706 10.5713 1070.41 85.062 -370.405
lowerback 4.65463 0.68718 0.132451
upperback 2.29793 0.995445 2.53487
thorax -0.291612 0.511033 2.4807
lowerneck -11.5291 -3.3374 -9.48681
upperneck 40.0254 -1.75968 3.624
head 16.5183 -1.05531 3.20192
rclavicle -1.03368e-014 -1.51076e-014
rhumerus -32.825 -0.121685 -85.0954
rradius 40.7098
rwrist -13.8839
rhand -23.0296 10.978
rfingers 7.12502
rthumb 3.41452 -18.9744
lclavicle -1.03368e-014 -1.51076e-014
lhumerus -36.6366 6.91057 83.2547
lradius 26.629
lwrist 1.23266
lhand -20.1888 21.3041
lfingers 7.12502
lthumb 6.15753 51.1946
rfemur -10.0619 0.174875 20.8318
rtibia 35.0513
rfoot -21.9368 4.34353
rtoes 10.8695
lfemur -12.149 -1.57397 -19.8666
ltibia 32.2399
lfoot -16.4738 -8.29625
ltoes 12.5611
3191
root -1.03817 20.6866 10.6001 1063.01 85.0368 -377.62
lowerback 4.718 0.575976 0.599378
upperback 2.38885 0.876253 2.79941
thorax -0.225676 0.456668 2.49672
lowerneck -11.5607 -3.19331 -9.45437
upperneck 39.8856 -1.47891 3.41196
head 16.422 -0.962906 3.14112
rclavicle 8.54774e-015 1.98785e-014
rhumerus -32.8292 -0.239695 -85.0416
rradius 40.9702
rwrist -13.2291
rhand -22.5399 10.9153
rfingers 7.12502
rthumb 3.88739 -19.029
lclavicle 8.54774e-015 1.98785e-014
lhumerus -36.6735 7.13094 83.3817
lradius 26.6983
lwrist 1.4655
lhand -20.4641 21.169
lfingers 7.12502
lthumb 5.89178 51.0671
rfemur -9.47781 -0.255877 21.6267
rtibia 34.6029
rfoot -21.9637 5.08252
rtoes 12.6819
lfemur -12.1373 -1.65358 -19.1096
ltibia 32.8553
lfoot -16.9236 -8.25662
ltoes 11.9025
3192
root -1.01137 20.6757 10.6283 1056.78 85.0999 -383.629
lowerback 4.84385 0.504267 1.06756
upperback 2.46834 0.810037 2.95765
thorax -0.207418 0.429399 2.39928
lowerneck -11.6528 -3.14271 -9.53085
upperneck 39.8567 -1.37354 3.41296
head 16.4216 -0.930735 3.17199
rclavicle 2.19657e-014 2.3059e-014
rhumerus -32.8909 -0.46294 -84.9227
rradius 41.2594
rwrist -12.7015
rhand -21.5622 10.8064
rfingers 7.12502
rthumb 4.83149 -19.1185
lclavicle 2.19657e-014 2.3059e-014
lhumerus -36.681 6.91684 83.5611
lradius 26.8153
lwrist 1.84268
lhand -20.286 21.2081
lfingers 7.12502
lthumb 6.06367 51.1013
rfemur -8.87881 -0.995465 22.2409
rtibia 34.1217
rfoot -22.0429 5.42823
rtoes 13.5119
lfemur -12.1233 -2.00197 -18.5424
ltibia 33.5378
lfoot -17.4401 -8.08172
ltoes 10.686
